<?xml version="1.0" encoding="UTF-8" standalone="no"?>
<!-- Created with Inkscape (http://www.inkscape.org/) -->

<svg
   xmlns:dc="http://purl.org/dc/elements/1.1/"
   xmlns:cc="http://creativecommons.org/ns#"
   xmlns:rdf="http://www.w3.org/1999/02/22-rdf-syntax-ns#"
   xmlns:svg="http://www.w3.org/2000/svg"
   xmlns="http://www.w3.org/2000/svg"
   xmlns:sodipodi="http://sodipodi.sourceforge.net/DTD/sodipodi-0.dtd"
   xmlns:inkscape="http://www.inkscape.org/namespaces/inkscape"
   width="209.9969mm"
   height="13.07612mm"
   viewBox="0 0 209.9969 13.07612"
   version="1.1"
   id="svg8"
   inkscape:version="0.92.3 (2405546, 2018-03-11)"
   sodipodi:docname="merkur.svg">
  <metadata
     id="metadata8">
    <rdf:RDF>
      <cc:Work
         rdf:about="">
        <dc:format>image/svg+xml</dc:format>
        <dc:type
           rdf:resource="http://purl.org/dc/dcmitype/StillImage" />
      </cc:Work>
    </rdf:RDF>
  </metadata>
  <defs
     id="defs6" />
  <sodipodi:namedview
     pagecolor="#ffffff"
     bordercolor="#666666"
     borderopacity="1"
     objecttolerance="10"
     gridtolerance="10"
     guidetolerance="10"
     inkscape:pageopacity="0"
     inkscape:pageshadow="2"
     inkscape:window-width="1920"
     inkscape:window-height="1017"
     id="namedview4"
     showgrid="false"
     inkscape:zoom="0.5946522"
     inkscape:cx="362.506"
     inkscape:cy="41.060553"
     inkscape:window-x="-8"
     inkscape:window-y="-8"
     inkscape:window-maximized="1"
     inkscape:current-layer="svg8" />
  <path
     id="path8664"
     style="display:inline;fill:none;fill-opacity:1;stroke:#000000;stroke-width:0.51873642px;stroke-linecap:butt;stroke-linejoin:miter;stroke-opacity:1"
     d="m 86.518957,0.25937243 h -10.0951 c 5.3e-4,0.0122 -5.1e-4,0.0336 0,0.0456 0.15751,2.82426997 1.70036,5.08371997 -0.65956,5.42342997 -2.35992,0.33971 -7.39443,2.41078 -9.10322,3.16307 -1.70877,0.75229 -2.7638,2.3796896 -3.779068,2.9422096 -1.015269,0.56247 -0.827756,0.8389 -0.827756,0.8389 l 17.923764,-0.11753 c 0,0 2.24963,0.11402 3.68587,-0.616 1.43625,-0.72996 1.04142,-1.05473 1.68994,-2.0415096 0.64857,-0.98678 -0.10292,-5.69814 0.54305,-7.07792 0.25985,-0.55504 0.44564,-1.57932 0.62208,-2.56023997 z m 45.507983,0 c 0.45019,3.17992997 0.81271,5.76190997 0.66565,6.13668997 -0.36444,0.92873 -0.4886,3.24548 0.0314,4.8631596 0.5201,1.61762 2.65042,1.55723 2.65042,1.55723 l 12.552,-0.082 c 0.15636,-1.04334 -0.31069,-2.36157 -1.17121,-3.7314496 -0.86052,-1.36988 -4.0283,-5.08339 -5.21674,-6.51663 -0.33772,-0.40726 -0.54313,-1.24462 -0.69403,-2.22690997 z"
     inkscape:connector-curvature="0" />
</svg>
