<?xml version="1.0" encoding="UTF-8" standalone="no"?>
<!-- Created with Inkscape (http://www.inkscape.org/) -->

<svg
   xmlns:dc="http://purl.org/dc/elements/1.1/"
   xmlns:cc="http://creativecommons.org/ns#"
   xmlns:rdf="http://www.w3.org/1999/02/22-rdf-syntax-ns#"
   xmlns:svg="http://www.w3.org/2000/svg"
   xmlns="http://www.w3.org/2000/svg"
   xmlns:sodipodi="http://sodipodi.sourceforge.net/DTD/sodipodi-0.dtd"
   xmlns:inkscape="http://www.inkscape.org/namespaces/inkscape"
   width="209.98711mm"
   height="54.816353mm"
   viewBox="0 0 209.98711 54.816353"
   version="1.1"
   id="svg8"
   inkscape:version="0.92.3 (2405546, 2018-03-11)"
   sodipodi:docname="neptun.svg">
  <metadata
     id="metadata8">
    <rdf:RDF>
      <cc:Work
         rdf:about="">
        <dc:format>image/svg+xml</dc:format>
        <dc:type
           rdf:resource="http://purl.org/dc/dcmitype/StillImage" />
      </cc:Work>
    </rdf:RDF>
  </metadata>
  <defs
     id="defs6" />
  <sodipodi:namedview
     pagecolor="#ffffff"
     bordercolor="#666666"
     borderopacity="1"
     objecttolerance="10"
     gridtolerance="10"
     guidetolerance="10"
     inkscape:pageopacity="0"
     inkscape:pageshadow="2"
     inkscape:window-width="1920"
     inkscape:window-height="1017"
     id="namedview4"
     showgrid="false"
     inkscape:zoom="0.2102413"
     inkscape:cx="396.82602"
     inkscape:cy="-332.52323"
     inkscape:window-x="-8"
     inkscape:window-y="-8"
     inkscape:window-maximized="1"
     inkscape:current-layer="svg8" />
  <path
     style="display:inline;fill:none;fill-opacity:1;stroke:#000000;stroke-width:0.51873642px;stroke-linecap:butt;stroke-linejoin:miter;stroke-opacity:1"
     d="m 127.91673,0.24272984 c -0.5736,-0.069917 -0.9327,0.129291 -1.09623,0.1631194 -0.32707,0.067654 -1.50009,0.99189946 -2.6636,3.35760066 -1.16348,2.3657078 0.35483,4.0584488 0.95035,4.9715648 0.59551,0.913111 3.43479,4.4318363 4.0273,4.8864563 0.5925,0.45462 0.34956,3.338821 0.35258,3.797311 0.003,0.458502 -1.56948,0.402634 -2.22489,0.341438 -0.65543,-0.0612 -2.6833,0.345723 -3.27149,0.54609 -0.5882,0.200362 -1.8974,0.339285 -2.2249,0.341432 -0.32749,0.002 -0.39659,-0.520868 -0.39918,-0.913868 -0.002,-0.39299 0.0465,-2.882422 -0.28571,-3.600758 -0.33223,-0.718336 -1.96853,-0.64219 -2.36065,-0.508605 -0.39214,0.133579 -0.056,1.506525 -0.11247,2.882432 -0.0565,1.375907 -0.71236,1.183684 -0.95845,3.608865 -0.24606,2.425186 2.57686,3.455439 3.76186,4.36468 1.18501,0.909241 6.7465,-0.04445 7.47001,0.40932 0.7235,0.453759 1.87107,5.685994 2.95133,10.591545 1.08025,4.905535 1.87149,5.686155 1.95032,7.716205 0.0788,2.030033 0.35523,4.255963 1.03646,8.247095 0.23259,1.362669 0.28851,2.289947 0.23607,3.112418 l 11.44563,-0.0031 c 0.0198,-0.680135 -0.023,-1.335098 -0.1459,-2.071905 -0.27275,-1.635753 -0.93463,-2.679648 -1.60382,-4.836813 -0.66919,-2.157161 -1.67989,-6.473598 -3.27554,-10.065713 -1.59563,-3.592121 -3.84269,-6.524574 -4.30591,-7.242049 -0.46323,-0.717479 -0.59701,-1.240501 -0.53495,-1.764918 0.0621,-0.524427 1.30815,-0.205311 1.42754,-1.974643 0.11938,-1.769348 -0.0159,-2.48896 0.49948,-3.802379 0.51539,-1.313425 0.94955,-4.984217 0.67679,-6.61997 -0.27275,-1.635753 -1.66323,-3.854186 -2.1256,-4.440669 -0.46237,-0.586479 -0.46459,-0.979587 -1.19755,-2.8743253 -0.73296,-1.894736 -1.72489,-3.263822 -2.18639,-3.719303 -0.46151,-0.455478 -1.38429,-1.3661552 -3.42852,-3.4487858 -1.02214,-1.04131416 -1.81037,-1.37990546 -2.38397,-1.44982766 z"
     id="path8561"
     inkscape:connector-curvature="0" />
</svg>
