<?xml version="1.0" encoding="UTF-8" standalone="no"?>
<!-- Created with Inkscape (http://www.inkscape.org/) -->

<svg
   xmlns:dc="http://purl.org/dc/elements/1.1/"
   xmlns:cc="http://creativecommons.org/ns#"
   xmlns:rdf="http://www.w3.org/1999/02/22-rdf-syntax-ns#"
   xmlns:svg="http://www.w3.org/2000/svg"
   xmlns="http://www.w3.org/2000/svg"
   xmlns:sodipodi="http://sodipodi.sourceforge.net/DTD/sodipodi-0.dtd"
   xmlns:inkscape="http://www.inkscape.org/namespaces/inkscape"
   width="210.00082mm"
   height="55.257149mm"
   viewBox="0 0 210.00082 55.257149"
   version="1.1"
   id="svg8"
   inkscape:version="0.92.3 (2405546, 2018-03-11)"
   sodipodi:docname="saturn.svg">
  <metadata
     id="metadata8">
    <rdf:RDF>
      <cc:Work
         rdf:about="">
        <dc:format>image/svg+xml</dc:format>
        <dc:type
           rdf:resource="http://purl.org/dc/dcmitype/StillImage" />
      </cc:Work>
    </rdf:RDF>
  </metadata>
  <defs
     id="defs6" />
  <sodipodi:namedview
     pagecolor="#ffffff"
     bordercolor="#666666"
     borderopacity="1"
     objecttolerance="10"
     gridtolerance="10"
     guidetolerance="10"
     inkscape:pageopacity="0"
     inkscape:pageshadow="2"
     inkscape:window-width="1920"
     inkscape:window-height="1017"
     id="namedview4"
     showgrid="false"
     inkscape:zoom="0.2102413"
     inkscape:cx="396.85194"
     inkscape:cy="208.30586"
     inkscape:window-x="-8"
     inkscape:window-y="-8"
     inkscape:window-maximized="1"
     inkscape:current-layer="svg8" />
  <path
     id="path8682"
     style="fill:none;fill-opacity:1;stroke:#000000;stroke-width:0.51873642px;stroke-linecap:butt;stroke-linejoin:miter;stroke-opacity:1"
     d="M 102.55211,0.34503902 H 90.690064 c 0.03003,0.20019 0.114376,0.4803 0.135763,0.66665998 0.138954,1.21087 0.417433,2.445 0.750747,3.64027 0.333314,1.19526 0.721033,2.35137 1.080025,3.40522 0.358996,1.05386 0.688752,2.00561 0.904749,2.79226 0.216002,0.78665 0.318566,1.40877 0.222896,1.80241 -0.382667,1.57456 -1.788235,6.95439 -2.815562,10.10523 -0.513668,1.57541 -1.059706,3.21702 -1.526828,4.39913 -0.233561,0.59105 -0.447924,1.06675 -0.628159,1.36269 -0.180235,0.29595 -0.326415,0.41201 -0.425525,0.28166 -0.198219,-0.26071 -0.400568,-1.20977 -0.60384,-2.24009 -0.203277,-1.03032 -0.40753,-2.14226 -0.607897,-2.73046 -0.200372,-0.5882 -0.802771,-2.51652 -1.503526,-4.49335 -0.350376,-0.98841 -0.72536,-1.98869 -1.087116,-2.83988 -0.361757,-0.8512 -0.709751,-1.55318 -1.007081,-1.94425 -0.297324,-0.39105 -0.53822,-0.91321 -0.734536,-1.50757 -0.196316,-0.59438 -0.347979,-1.26141 -0.467065,-1.9402 -0.238178,-1.3576 -0.345468,-2.7646 -0.417422,-3.74666 -0.07036,-0.96027 -0.121063,-4.03155 -0.111445,-7.01306998 H 73.509957 C 73.365681,2.598889 73.064332,4.572859 72.500854,5.786709 c -0.776408,1.67251 -0.743121,6.71997 -0.532924,10.51656 0.210208,3.79662 1.802003,6.42639 2.829749,7.76282 1.027747,1.33643 3.528695,8.36078 5.316038,12.51756 1.787337,4.15671 2.571771,3.64201 2.992865,4.28767 0.42109,0.64565 -1.265494,4.82504 -1.443752,5.89152 -0.140739,0.842 -0.609495,5.23342 -1.087116,8.23494 h 22.350246 c 0.87066,-2.85968 1.6123,-3.34211 2.08204,-3.90471 0.7149,-0.85621 0.63783,-2.62418 0.63525,-3.01719 -0.003,-0.39298 0.57855,-1.7074 1.2857,-3.7426 0.70715,-2.0352 2.09283,-0.53724 2.1023,0.90374 0.009,1.44097 1.52903,3.52697 3.26642,8.75571 0.0952,0.2866 0.16294,0.67474 0.24619,1.00505 h 22.3695 c 0.0529,-3.25894 -0.44767,-8.14726 -0.56737,-10.0252 -0.14605,-2.29159 -2.89951,-2.6016 -3.38597,-6.85603 -0.48646,-4.25441 -4.86042,-12.02071 -7.9776,-17.89539 -3.11717,-5.87468 -4.06052,-9.86369 -4.6129,-14.18319 -0.26507,-2.07274 -0.26613,-3.99795 -0.18237,-5.69292998 h -10.65132 c -0.0239,0.35058 -0.01,0.73507998 -0.14184,0.97363998 -0.20598,0.37189 -0.55052,0.83771 -1.01721,1.18235 -0.23335,0.17233 -0.49671,0.31404 -0.78925,0.39919 -0.29254,0.0851 -0.61375,0.11336 -0.96149,0.0577 -0.34774,-0.0556 -0.66151,-0.21789 -0.93514,-0.44984 -0.27363,-0.23196 -0.50759,-0.53357 -0.69503,-0.86524 -0.18745,-0.33167 -0.32825,-0.69385998 -0.41742,-1.04861998 -0.0221,-0.0882 -0.0107,-0.1626 -0.0264,-0.24923 z"
     inkscape:connector-curvature="0" />
</svg>
