<?xml version="1.0" encoding="UTF-8" standalone="no"?>
<!-- Created with Inkscape (http://www.inkscape.org/) -->

<svg
   xmlns:dc="http://purl.org/dc/elements/1.1/"
   xmlns:cc="http://creativecommons.org/ns#"
   xmlns:rdf="http://www.w3.org/1999/02/22-rdf-syntax-ns#"
   xmlns:svg="http://www.w3.org/2000/svg"
   xmlns="http://www.w3.org/2000/svg"
   xmlns:sodipodi="http://sodipodi.sourceforge.net/DTD/sodipodi-0.dtd"
   xmlns:inkscape="http://www.inkscape.org/namespaces/inkscape"
   width="210.71071mm"
   height="88.963547mm"
   viewBox="0 0 210.71071 88.963547"
   version="1.1"
   id="svg8"
   inkscape:version="0.92.3 (2405546, 2018-03-11)"
   sodipodi:docname="uranus.svg">
  <metadata
     id="metadata8">
    <rdf:RDF>
      <cc:Work
         rdf:about="">
        <dc:format>image/svg+xml</dc:format>
        <dc:type
           rdf:resource="http://purl.org/dc/dcmitype/StillImage" />
      </cc:Work>
    </rdf:RDF>
  </metadata>
  <defs
     id="defs6" />
  <sodipodi:namedview
     pagecolor="#ffffff"
     bordercolor="#666666"
     borderopacity="1"
     objecttolerance="10"
     gridtolerance="10"
     guidetolerance="10"
     inkscape:pageopacity="0"
     inkscape:pageshadow="2"
     inkscape:window-width="1920"
     inkscape:window-height="1017"
     id="namedview4"
     showgrid="false"
     inkscape:zoom="0.84096521"
     inkscape:cx="105.48113"
     inkscape:cy="-91.164721"
     inkscape:window-x="-8"
     inkscape:window-y="-8"
     inkscape:window-maximized="1"
     inkscape:current-layer="svg8" />
  <path
     style="display:inline;fill:none;fill-opacity:1;stroke:#000000;stroke-width:0.51873642px;stroke-linecap:butt;stroke-linejoin:miter;stroke-opacity:1"
     d="m 146.86288,0.25944592 -11.44563,0.0031 c -0.10121,1.58648798 -0.78877,2.63542498 -2.67373,4.63215598 -2.86216,3.03188 -5.43522,10.1887721 -6.65948,13.2754001 -1.22426,3.086627 -2.52654,4.208965 -4.15799,5.136704 -1.63146,0.927745 -2.15505,0.996109 -4.70004,2.453868 -2.54499,1.457758 -4.16282,4.514297 -5.13671,5.830719 -0.97388,1.316434 -0.76414,3.280582 -0.75683,4.394063 0.008,1.113491 -3.33703,0.676352 -5.30286,0.558252 -1.96583,-0.11809 -1.38139,-1.038696 -1.66361,-4.115446 -0.2822,-3.076717 2.28769,-10.626279 4.22081,-15.486108 1.93314,-4.859829 1.30764,-10.3580161 -0.0182,-12.7728741 -1.32591,-2.414853 -3.50149,-4.56149798 -8.27345,-3.089117 -4.771958,1.472387 -5.500108,6.262332 -5.581488,7.97659 -0.0814,1.7142531 1.971903,11.1030251 2.681833,13.4141981 0.70994,2.311179 1.22469,10.042496 -0.51671,12.879259 -1.741413,2.836753 -7.129853,0.55659 -10.049503,0.297873 -2.91967,-0.258727 -12.52564,-3.067807 -13.3139,-3.201583 -0.78826,-0.133776 -2.03027,1.125725 -3.08912,2.105343 -1.05885,0.979598 -1.24419,0.980724 -1.83685,2.420426 -0.59266,1.439712 -0.98733,4.869594 -1.3475,6.446714 -0.36017,1.57715 -1.25863,5.79776 -1.37384,9.41122 -0.11522,3.61346 1.09861,5.04098 1.29482,6.7071 0.19621,1.66611 1.5547,3.9735 2.45082,6.4224 0.89609,2.4489 0.25222,3.10195 1.83482,4.29579 1.58261,1.19384 1.31945,3.51085 1.98276,5.77601 0.66331,2.26517 0.50605,6.57345 0.57546,10.09308 0.0191,0.9652 -0.0873,1.72785 -0.14183,2.57949 h 8.33828 c 2.2e-4,-0.0677 -0.002,-0.0916 -0.002,-0.15907 0.0128,-3.04591 0.0921,-5.99372 0.2847,-6.5845 0.19262,-0.59078 0.33693,-3.60435 0.41539,-6.61795 0.0785,-3.0136 0.0907,-6.02685 0.0212,-6.61592 -0.0694,-0.58905 -0.0745,-1.37568 0.003,-2.04758 0.0387,-0.33595 0.098,-0.64344 0.18034,-0.88348 0.0823,-0.24003 0.18756,-0.41184 0.31813,-0.4782 0.13057,-0.0664 0.26233,-0.0267 0.39209,0.0952 0.12975,0.12196 0.25845,0.32543 0.38297,0.58662 0.24907,0.52238 0.48324,1.27403 0.6849,2.05874 0.20166,0.78469 0.47086,1.92928 0.82268,3.13875 0.35183,1.20947 0.78623,2.48428 1.31711,3.52883 0,0 0.90044,2.45068 1.87028,5.50651 0.48493,1.52792 0.98642,3.20741 1.40222,4.80743 0.35181,1.35377 0.58365,2.56399 0.74872,3.66459 H 102.907 c -0.0473,-0.26196 -0.0949,-0.52744 -0.079,-0.75378 0.0211,-0.30121 0.0741,-0.59123 0.16717,-0.85816 0.0931,-0.26693 0.2263,-0.51073 0.40728,-0.72035 0.18101,-0.20961 0.41002,-0.38442 0.69503,-0.51367 0.28501,-0.12924 0.62629,-0.21329 1.0314,-0.23911 0,0 0.30068,-0.0479 0.71224,0.0305 0.2058,0.0391 0.43933,0.10967 0.6768,0.23404 0.23746,0.12436 0.47841,0.30294 0.70009,0.55622 0.22167,0.25328 0.39219,0.53575 0.5157,0.82877 0.1235,0.293 0.2004,0.59655 0.23708,0.89157 0.0263,0.21155 -0.0667,0.34812 -0.0801,0.54406 h 10.65132 c 0.0908,-1.83726 0.28207,-3.40184 0.37689,-4.52678 0.18231,-2.16276 1.20912,-5.44407 2.49845,-8.59664 1.28933,-3.15255 1.79984,-5.252 2.16917,-8.85702 0.36932,-3.60502 -0.0763,-1.63707 0.95743,-3.80541 1.03378,-2.16836 1.2222,-3.41449 1.78113,-8.06879 0.55894,-4.65429 1.77824,-8.46146 2.93613,-11.67865 1.15791,-3.217198 1.4596,-7.149172 1.45186,-8.328163 -0.008,-1.17898 1.94535,-3.025596 2.65852,-4.143805 0.71317,-1.118219 2.19967,-4.075549 4.33834,-7.561198 2.13866,-3.485644 2.32902,-4.534861 2.90776,-6.176206 0.57874,-1.641345 4.07374,-7.9531121 5.30489,-9.9917571 1.23115,-2.038639 -0.20946,-1.96279 0.43262,-3.932063 0.35286,-1.082235 0.48335,-1.948266 0.50759,-2.77807798 z"
     id="path8617"
     inkscape:connector-curvature="0" />
</svg>
