<svg width="173.397" height="173.397" xmlns="http://www.w3.org/2000/svg" clip-rule="evenodd" fill-rule="evenodd" xml:space="preserve">

 <g>
  <title>Layer 1</title>
  <g id="svg_1">
   <g id="svg_2">
    <path id="svg_3" fill="black" d="m86.6999,39.395c-26.0846,0 -47.306,21.2208 -47.306,47.3043c0.0004,26.083 21.2204,47.3039 47.3046,47.3039c26.0811,-0.0003 47.3012,-21.2205 47.3012,-47.3039c0.0009,-26.0836 -21.2206,-47.304 -47.3012,-47.304l0.0014,-0.0003zm0,97.2934c-27.5667,0 -49.9914,-22.4249 -49.9914,-49.9891c0,-27.5647 22.4235,-49.9893 49.99,-49.9893c27.5633,0 49.9864,22.425 49.9864,49.9893c0,27.5641 -22.4231,49.9892 -49.985,49.9891z" class="fil0"/>
    <path id="svg_4" fill="black" d="m87.1641,33.5064c-0.7443,0 -1.3468,-0.6024 -1.3468,-1.3461l0.0014,-20.6545c0,-0.7435 0.6001,-1.3461 1.345,-1.3461c0.7414,0 1.346,0.6028 1.346,1.3462l0.0012,20.6541c0,0.7438 -0.606,1.3464 -1.3468,1.3464z" class="fil0"/>
    <path id="svg_5" fill="black" d="m101.262,35.4854c-0.115,0 -0.2316,-0.0146 -0.3503,-0.046c-0.7166,-0.1927 -1.1436,-0.9305 -0.9509,-1.649l3.2378,-12.082c0.1921,-0.7178 0.9333,-1.144 1.6503,-0.9518c0.7178,0.1922 1.1432,0.9308 0.9509,1.649l-3.2367,12.0815c-0.1605,0.6019 -0.7073,0.9983 -1.3011,0.9983z" class="fil0"/>
    <path id="svg_6" fill="black" d="m114.367,41.046c-0.2266,0 -0.4587,-0.058 -0.6722,-0.1804c-0.6417,-0.3723 -0.8635,-1.1951 -0.493,-1.8392l10.3289,-17.8872c0.3713,-0.6435 1.1959,-0.8647 1.8394,-0.4927c0.6434,0.3715 0.8634,1.1951 0.4928,1.8392l-10.3286,17.8873c-0.2485,0.431 -0.7029,0.673 -1.1673,0.673z" class="fil0"/>
    <path id="svg_7" fill="black" d="m125.591,49.8089c-0.3416,0 -0.6889,-0.131 -0.9513,-0.3939c-0.5277,-0.5262 -0.5281,-1.3784 0,-1.9039l8.8438,-8.8446c0.5269,-0.5259 1.3767,-0.5258 1.9048,0.0001c0.5245,0.5259 0.5243,1.378 0,1.9039l-8.8454,8.8442c-0.2627,0.2632 -0.606,0.3944 -0.9519,0.3942z" class="fil0"/>
    <path id="svg_8" fill="black" d="m134.164,61.1786c-0.4641,0 -0.9198,-0.2412 -1.168,-0.673c-0.3691,-0.644 -0.1504,-1.4675 0.4928,-1.8392l17.8886,-10.3275c0.6405,-0.3714 1.4649,-0.1508 1.8356,0.4928c0.3752,0.644 0.1538,1.4676 -0.4896,1.8393l-17.8874,10.327c-0.2141,0.1223 -0.4448,0.1807 -0.672,0.1806z" class="fil0"/>
    <path id="svg_9" fill="black" d="m139.497,74.3789c-0.5946,0 -1.1366,-0.3962 -1.2976,-0.9979c-0.1922,-0.7182 0.231,-1.4563 0.9511,-1.6487l12.0813,-3.2376c0.7208,-0.1928 1.4574,0.2344 1.6497,0.9519c0.193,0.7183 -0.2343,1.4567 -0.9511,1.649l-12.0841,3.2374c-0.1146,0.031 -0.2341,0.0462 -0.3493,0.0459z" class="fil0"/>
    <path id="svg_10" fill="black" d="m161.892,88.5101l-20.6529,0c-0.7444,0 -1.3474,-0.6024 -1.3474,-1.3462c0.0004,-0.7433 0.6016,-1.3462 1.3462,-1.3462l20.6541,-0.0003c0.7427,0 1.3461,0.6032 1.3461,1.3465c0.0008,0.7435 -0.605,1.3462 -1.3461,1.3462z" class="fil0"/>
    <path id="svg_11" fill="black" d="m151.34,105.848c-0.1163,0 -0.2315,-0.0148 -0.3471,-0.0459l-12.083,-3.2375c-0.7176,-0.1928 -1.1446,-0.9308 -0.9519,-1.649c0.1935,-0.7178 0.9299,-1.1447 1.6469,-0.9521l12.0844,3.2375c0.7176,0.1924 1.1428,0.9308 0.9503,1.649c-0.1604,0.6015 -0.7061,0.9983 -1.2996,0.998z" class="fil0"/>
    <path id="svg_12" fill="black" d="m151.584,126.045c-0.2295,0 -0.4614,-0.0583 -0.6714,-0.1806l-17.8871,-10.3273c-0.6437,-0.3721 -0.8647,-1.1948 -0.494,-1.8389c0.3711,-0.6439 1.1957,-0.8643 1.8389,-0.4927l17.8888,10.3271c0.6435,0.3713 0.8631,1.1951 0.489,1.8391c-0.2467,0.4318 -0.6991,0.6735 -1.1642,0.6733z" class="fil0"/>
    <path id="svg_13" fill="black" d="m133.78,135.783c-0.3461,0 -0.6898,-0.1308 -0.9554,-0.3937l-8.8424,-8.8451c-0.5271,-0.5259 -0.5285,-1.3777 -0.0004,-1.9036c0.5243,-0.5258 1.3774,-0.5259 1.902,0l8.8465,8.8444c0.5255,0.5259 0.5241,1.3784 -0.0002,1.9043c-0.261,0.2623 -0.6085,0.394 -0.9501,0.3937z" class="fil0"/>
    <path id="svg_14" fill="black" d="m123.891,153.398c-0.4641,0 -0.916,-0.2411 -1.1644,-0.6746l-10.328,-17.8865c-0.3712,-0.644 -0.1512,-1.4673 0.4923,-1.839c0.6438,-0.3721 1.4684,-0.1511 1.8391,0.4927l10.3254,17.8863c0.3746,0.6435 0.1538,1.4688 -0.4897,1.8394c-0.2121,0.1223 -0.444,0.1818 -0.6747,0.1817z" class="fil0"/>
    <path id="svg_15" fill="black" d="m103.602,152.93c-0.5946,0 -1.1406,-0.3985 -1.3015,-0.9999l-3.2379,-12.0809c-0.1919,-0.7187 0.2343,-1.4567 0.9547,-1.649c0.718,-0.192 1.4544,0.2343 1.6469,0.9518l3.2376,12.0823c0.1935,0.7167 -0.2341,1.458 -0.9509,1.6503c-0.1189,0.0277 -0.2343,0.0455 -0.3489,0.0454z" class="fil0"/>
    <path id="svg_16" fill="black" d="m86.234,163.237c-0.7441,0 -1.3467,-0.6011 -1.3467,-1.3459l0,-20.6531c0,-0.7435 0.6014,-1.346 1.3463,-1.346c0.7416,-0.0001 1.346,0.6028 1.346,1.3462l0.0014,20.6527c0,0.7447 -0.6062,1.3464 -1.347,1.3461z" class="fil0"/>
    <path id="svg_17" fill="black" d="m68.8947,152.688c-0.1116,0 -0.2315,-0.014 -0.3467,-0.0455c-0.7199,-0.1925 -1.1469,-0.9301 -0.9546,-1.6504l3.2382,-12.0815c0.1919,-0.7179 0.9295,-1.1448 1.6501,-0.9518c0.718,0.1925 1.1432,0.9307 0.9509,1.6489l-3.2365,12.0799c-0.1621,0.605 -0.7077,1.0004 -1.3014,1.0004z" class="fil0"/>
    <path id="svg_18" fill="black" d="m48.6982,152.933c-0.23,0 -0.4615,-0.0595 -0.6714,-0.1818c-0.6456,-0.371 -0.8673,-1.1958 -0.493,-1.8392l10.3265,-17.8863c0.3695,-0.6439 1.1946,-0.8646 1.838,-0.4926c0.6446,0.3715 0.8635,1.1952 0.4928,1.8389l-10.3287,17.8859c-0.247,0.4335 -0.6992,0.6752 -1.1642,0.6751z" class="fil0"/>
    <path id="svg_19" fill="black" d="m38.9616,135.126c-0.3461,0 -0.6903,-0.1309 -0.9561,-0.3938c-0.5229,-0.5259 -0.5243,-1.3783 0,-1.9042l8.8468,-8.8448c0.5241,-0.5255 1.3773,-0.5256 1.9018,0.0003c0.5293,0.5257 0.5279,1.378 0,1.9039l-8.8422,8.8448c-0.2629,0.2625 -0.609,0.3941 -0.9517,0.3941l0.0014,-0.0003z" class="fil0"/>
    <path id="svg_20" fill="black" d="m21.3485,125.24c-0.4642,0 -0.9199,-0.2411 -1.1683,-0.673c-0.3737,-0.644 -0.1501,-1.4675 0.4932,-1.8391l17.8854,-10.3272c0.6466,-0.3721 1.4681,-0.1512 1.8386,0.4928c0.3752,0.644 0.1538,1.4675 -0.493,1.8392l-17.8841,10.3267c-0.2138,0.1223 -0.445,0.1807 -0.6718,0.1806z" class="fil0"/>
    <path id="svg_21" fill="black" d="m21.8142,104.95c-0.5947,0 -1.1373,-0.3966 -1.3016,-0.998c-0.1917,-0.7183 0.2341,-1.4566 0.9545,-1.649l12.0818,-3.2373c0.719,-0.1924 1.4568,0.2342 1.6491,0.9521c0.1935,0.718 -0.2343,1.4567 -0.9547,1.6489l-12.0796,3.2372c-0.115,0.0311 -0.2351,0.0461 -0.3495,0.0461z" class="fil0"/>
    <path id="svg_22" fill="black" d="m32.1596,87.5805l-20.6531,0c-0.7458,0 -1.3472,-0.6022 -1.3472,-1.346c0.0004,-0.7435 0.6012,-1.3462 1.346,-1.3462l20.6543,0c0.7425,0 1.3459,0.6029 1.3459,1.3462c0.0008,0.7434 -0.6046,1.3462 -1.3459,1.346z" class="fil0"/>
    <path id="svg_23" fill="black" d="m34.1391,73.481c-0.115,0 -0.2349,-0.0144 -0.3501,-0.0458l-12.0832,-3.2377c-0.7176,-0.1927 -1.1442,-0.9306 -0.9519,-1.6488c0.1934,-0.7181 0.93,-1.1447 1.6504,-0.9521l12.0809,3.2378c0.7205,0.1923 1.143,0.9304 0.9505,1.6486c-0.1608,0.6018 -0.7027,0.9983 -1.2966,0.998z" class="fil0"/>
    <path id="svg_24" fill="black" d="m39.6948,60.3738c-0.2265,0 -0.4585,-0.058 -0.6718,-0.1804l-17.8838,-10.3274c-0.6466,-0.3718 -0.8678,-1.1951 -0.494,-1.8388c0.3713,-0.6438 1.1924,-0.8644 1.8396,-0.493l17.885,10.3271c0.6466,0.3718 0.8667,1.1953 0.4928,1.8391c-0.2474,0.4318 -0.6994,0.6734 -1.1678,0.6734z" class="fil0"/>
    <path id="svg_25" fill="black" d="m48.4603,49.1519c-0.3413,0 -0.6888,-0.1313 -0.9511,-0.3942l-8.845,-8.8446c-0.5257,-0.5259 -0.5257,-1.378 -0.0012,-1.9038c0.5283,-0.526 1.3777,-0.5259 1.9056,0l8.8438,8.8443c0.5271,0.5259 0.5271,1.3785 -0.001,1.9041c-0.2616,0.2629 -0.605,0.3943 -0.9511,0.3942z" class="fil0"/>
    <path id="svg_26" fill="black" d="m59.8317,40.581c-0.464,0 -0.9168,-0.2409 -1.1685,-0.6731l-10.3238,-17.8875c-0.3747,-0.644 -0.1518,-1.4669 0.4916,-1.8389c0.6442,-0.3727 1.4651,-0.1508 1.8392,0.493l10.3259,17.8871c0.3745,0.6438 0.1497,1.4673 -0.4938,1.8393c-0.2097,0.1223 -0.444,0.1804 -0.6706,0.1801z" class="fil0"/>
    <path id="svg_27" fill="black" d="m73.0312,35.2447c-0.5947,0 -1.1406,-0.3963 -1.3016,-0.9977l-3.2361,-12.0823c-0.1936,-0.7179 0.2329,-1.4563 0.9495,-1.6486c0.7214,-0.1927 1.458,0.2343 1.6503,0.9521l3.2393,12.0819c0.192,0.7179 -0.2357,1.4563 -0.9523,1.649c-0.1176,0.031 -0.2345,0.0458 -0.3491,0.0456z" class="fil0"/>
   </g>
  </g>
 </g>
</svg>